<svg xmlns="http://www.w3.org/2000/svg" xmlns:xlink="http://www.w3.org/1999/xlink" width="193.186" height="76.508" viewBox="0 0 193.186 76.508">
  <defs>
    <clipPath id="clip-path">
      <rect id="Rectángulo_15" data-name="Rectángulo 15" width="193.186" height="76.508" fill="none"/>
    </clipPath>
  </defs>
  <g id="Grupo_16" data-name="Grupo 16" clip-path="url(#clip-path)">
    <path id="Trazado_52" data-name="Trazado 52" d="M8.1,40.513a2.005,2.005,0,0,0,.449-2.356A39.374,39.374,0,0,1,4.74,24.864c-.592-5.738-.525-11.447,2.113-16.752a18.124,18.124,0,0,1,3.415-4.73A9.386,9.386,0,0,1,21.921,2.158a21.389,21.389,0,0,1,8.041,9.965c.08.183.157.367.236.559a.808.808,0,0,0,1.516-.053l.006-.018a24.121,24.121,0,0,1,3.892-7.768C37.567,2.4,39.9.531,43.143.066a11.248,11.248,0,0,1,8.763,3.281,13.831,13.831,0,0,1,3.5,8.9c.25,5.091-.669,10.067-1.6,15.036-.273,1.458-.616,2.9-.967,4.435a1.738,1.738,0,0,0,.657,1.783l1.805,1.34a1.643,1.643,0,0,0,1.946,0c.139-.1.281-.2.425-.3,3.631-2.4,7.469-3.071,11.508-1.15a6.9,6.9,0,0,1,2.647,10.531,14.253,14.253,0,0,1-6.853,5.1q-.176.064-.355.125a1.966,1.966,0,0,0-1.332,1.7,19.965,19.965,0,0,1-.243,2.055A23.5,23.5,0,0,1,52.991,68.15a45.5,45.5,0,0,1-31.069,8.157A27.834,27.834,0,0,1,7.912,70.989,20.5,20.5,0,0,1,1.328,62.91C-.7,58.565-.2,54.089,1.477,49.736a23.859,23.859,0,0,1,5.311-7.963c.416-.43.854-.839,1.314-1.26M26.7,30.416A1.859,1.859,0,0,0,28.085,28.4c-.109-.915-.215-1.8-.331-2.681a41.182,41.182,0,0,0-3.169-12.362,16.286,16.286,0,0,0-4.978-6.4c-2.356-1.732-4.538-1.443-6.453.756a12.7,12.7,0,0,0-2.731,5.733c-1.617,7.346-.577,14.4,2.171,21.232l0,.012a1.421,1.421,0,0,0,2.045.661A44.82,44.82,0,0,1,26.7,30.416M25.861,69.9a1.265,1.265,0,0,0,1.209,1.665c.487,0,.974-.04,1.46,0,1.494.125,4.316-.408,4.886-2.209.227-.715,2.817-7.548,2.97-10.791A106.18,106.18,0,0,0,36.258,47a29.676,29.676,0,0,0-3.441-11.36,1.359,1.359,0,0,0-1.649-.933,43.3,43.3,0,0,0-9.306,2.649c-.163.068-.446.21-.75.368a1.309,1.309,0,0,0-.466,1.908c6.489,9.313,8.941,19.162,5.215,30.266M45.613,30.342a2.125,2.125,0,0,0,2.338-1.7c.394-2,.8-4.014,1.137-6.042.614-3.694,1.335-7.41.791-11.161a10.484,10.484,0,0,0-1.548-4.1c-1.8-2.765-4.63-3.053-7.2-.966a12.6,12.6,0,0,0-3.586,5.247,50.581,50.581,0,0,0-3.172,12.4c-.113.848-.184,1.7-.241,2.54a2.513,2.513,0,0,0,2.208,2.667l9.268,1.111M8.83,65.519a21.929,21.929,0,0,0,9.38,4.991,1.7,1.7,0,0,0,2.008-.914,20.992,20.992,0,0,0,1.9-12.467c-.725-4.623-1.839-9.076-4.313-13.093-.544-.884-1.179-1.711-1.8-2.552a.914.914,0,0,0-1.276-.194l-.006,0a28.464,28.464,0,0,0-8.048,8.689,15.545,15.545,0,0,0-1.562,4.143c-.652,2.818.142,3.967,3.011,4.6a10.882,10.882,0,0,0,2.656.2c1.124-.035,2.242-.233,3.366-.31a6.722,6.722,0,0,1,1.749.072,1.981,1.981,0,0,1,1.656,1.658,2.126,2.126,0,0,1-.9,2.35,5.1,5.1,0,0,1-2.114.852c-1.673.149-3.352.221-5.081.295a.974.974,0,0,0-.63,1.677M38.581,36.156c4.18,10.561,5.232,21.153.7,31.945a.836.836,0,0,0,1.051,1.12c1.531-.565,3.012-1.177,4.507-1.756a1.974,1.974,0,0,0,1.276-1.716A48.879,48.879,0,0,0,44.5,39.25c-.495-1.389-.7-3.235-1.7-4a6.921,6.921,0,0,0-3.023-.723,1.188,1.188,0,0,0-1.2,1.624m11.683,1.481a.685.685,0,0,0-1.011.813,44.428,44.428,0,0,1,2.739,11.019,59.281,59.281,0,0,1,.232,11.774.647.647,0,0,0,1.1.531c3.363-3.417,5.686-9.621,4.988-13.574-.887-5.027-4.129-8.067-8.049-10.564M60.376,40.45l1.63,3.022a1.405,1.405,0,0,0,1.932.55,12.559,12.559,0,0,0,3.71-3,1.8,1.8,0,0,0-.7-3.045,5.78,5.78,0,0,0-1.874-.484A7.058,7.058,0,0,0,61,38.361a1.541,1.541,0,0,0-.621,2.089" transform="translate(0 0)" fill="#ffe900"/>
    <path id="Trazado_53" data-name="Trazado 53" d="M118.565,10.832a2.477,2.477,0,0,1,2.355-.157,1.834,1.834,0,0,1,1.069,1.645,7.284,7.284,0,0,1-.44,2.413c-.6,1.856-1.315,3.678-1.942,5.527-.559,1.652-1.621,2.514-2.92,2.287a2.782,2.782,0,0,1-2.15-3.071,13.343,13.343,0,0,1,3.467-8.2,2.3,2.3,0,0,1,.561-.448" transform="translate(-21.814 -1.99)" fill="#ffe900"/>
    <path id="Trazado_54" data-name="Trazado 54" d="M124.265,45.022a2.3,2.3,0,0,1-2.166,1.813,2.35,2.35,0,0,1-2.365-1.558,6.53,6.53,0,0,1-.308-1.014c-.42-1.6-.844-3.2-1.243-4.813a9.445,9.445,0,0,1-.313-1.746,2.591,2.591,0,0,1,1.623-2.7,2.415,2.415,0,0,1,2.9,1.169c1.432,2.263,2.006,8.395,1.872,8.846" transform="translate(-22.448 -6.643)" fill="#ffe900"/>
    <path id="Trazado_55" data-name="Trazado 55" d="M103.94,75.155c2.416.049,3.513,1.86,2.575,3.643a3,3,0,0,1-1.014,1.211,50.073,50.073,0,0,1-5.64,2.982A2.819,2.819,0,0,1,96,81.448c-.537-1.488.223-2.9,1.95-3.69,1.4-.64,2.786-1.335,4.2-1.962.695-.308,1.435-.516,1.79-.642" transform="translate(-18.252 -14.314)" fill="#ffe900"/>
    <path id="Trazado_56" data-name="Trazado 56" d="M76.663,85.986a3.956,3.956,0,0,1-1.676-.944A2.446,2.446,0,0,1,76.1,80.848a4.625,4.625,0,0,1,1.582-.123c1.65.156,3.3.323,4.937.593a5.4,5.4,0,0,1,2.131.787,2.365,2.365,0,0,1-.422,4.266c-.9.372-6.123,0-7.667-.386" transform="translate(-14.13 -15.371)" fill="#ffe900"/>
    <path id="Trazado_57" data-name="Trazado 57" d="M165.985,61a8.121,8.121,0,0,1,.446-1.714,2.161,2.161,0,0,1,3.781-.349,6.462,6.462,0,0,1,.589,1.092c.726,1.489,1.443,2.982,2.168,4.471.207.427.471.83.641,1.27a2.574,2.574,0,0,1-.593,3.086,2.646,2.646,0,0,1-3.164-.14c-2.46-1.891-3.542-4.516-3.869-7.717" transform="translate(-31.614 -11.043)" fill="#ffe900"/>
    <path id="Trazado_58" data-name="Trazado 58" d="M235.76,71.125a2.823,2.823,0,0,1-.147,3.028,1.88,1.88,0,0,1-.48.514,49.97,49.97,0,0,1-5.91,3.585,2.577,2.577,0,0,1-2.646-4.4,43.562,43.562,0,0,1,6.326-3.586,2.174,2.174,0,0,1,2.858.863" transform="translate(-42.947 -13.34)" fill="#ffe900"/>
    <path id="Trazado_59" data-name="Trazado 59" d="M189.215,83.01a13.515,13.515,0,0,1-6-1.693,6.092,6.092,0,0,1-1.624-1.342,2.347,2.347,0,0,1-.128-2.816,2.128,2.128,0,0,1,2.511-.835c2.219.631,4.433,1.279,6.631,1.974,1.715.543,2.469,1.515,2.249,2.734-.218,1.194-1.307,1.913-3,1.978-.177.006-.355,0-.636,0" transform="translate(-34.484 -14.515)" fill="#ffe900"/>
    <path id="Trazado_60" data-name="Trazado 60" d="M168.9,48.3a2.294,2.294,0,0,1-4.408.172,3.87,3.87,0,0,1-.327-1.192c-.215-2.062-.47-4.124-.57-6.193a2.49,2.49,0,0,1,2.072-2.877,2.441,2.441,0,0,1,2.718,2.053A31.719,31.719,0,0,1,168.9,48.3" transform="translate(-31.158 -7.273)" fill="#ffe900"/>
    <path id="Trazado_61" data-name="Trazado 61" d="M214.048,79.242a2.124,2.124,0,0,1,.5,3.826,2.791,2.791,0,0,1-.752.462,13.336,13.336,0,0,1-7.483.723,3.247,3.247,0,0,1-.828-.3,2.533,2.533,0,0,1-1.5-2.752,2.37,2.37,0,0,1,2.339-2.041c1.647-.148,6.878-.265,7.724.083" transform="translate(-38.844 -15.049)" fill="#ffe900"/>
    <path id="Trazado_62" data-name="Trazado 62" d="M148.159,4.958a4.381,4.381,0,0,1,1.559.087,12.205,12.205,0,0,1,6.416,3.621,2.491,2.491,0,0,1,.351,3.109,2.244,2.244,0,0,1-2.83.852,67.95,67.95,0,0,1-6.64-3.7,2.076,2.076,0,0,1-.648-2.707,2.175,2.175,0,0,1,1.792-1.264" transform="translate(-27.831 -0.938)" fill="#ffe900"/>
    <path id="Trazado_63" data-name="Trazado 63" d="M132.374,6.583a5.179,5.179,0,0,1-.956.053c-1.63-.069-2.495-.7-2.756-1.777a2.653,2.653,0,0,1,1.793-3.1,14.379,14.379,0,0,1,6.8-.986,2.641,2.641,0,0,1,2.6,2.459,2.607,2.607,0,0,1-2.314,2.547c-1.817.363-3.662.586-5.17.8" transform="translate(-24.491 -0.135)" fill="#ffe900"/>
    <path id="Trazado_64" data-name="Trazado 64" d="M120.888,60.914a3.508,3.508,0,0,1-.043,1.374,10.559,10.559,0,0,1-3.659,6.242,2.23,2.23,0,0,1-2.956.015,2.112,2.112,0,0,1-.676-2.71,59.4,59.4,0,0,1,3.181-5.727,2.149,2.149,0,0,1,2.808-.878,2.2,2.2,0,0,1,1.344,1.684" transform="translate(-21.581 -11.241)" fill="#ffe900"/>
    <path id="Trazado_65" data-name="Trazado 65" d="M166.509,25.646a3.918,3.918,0,0,1,.038,1.609,2.2,2.2,0,0,1-1.251,1.711,1.947,1.947,0,0,1-2.543-.669,39.365,39.365,0,0,1-3-4.8,2.084,2.084,0,0,1,.782-2.687,2.167,2.167,0,0,1,2.812-.07,8.709,8.709,0,0,1,3.164,4.91" transform="translate(-30.383 -3.857)" fill="#ffe900"/>
    <path id="Trazado_66" data-name="Trazado 66" d="M19.02,62.521a2.678,2.678,0,0,1-2.581,2.826,2.869,2.869,0,0,1-2.8-2.871A2.618,2.618,0,0,1,16.2,59.66a2.879,2.879,0,0,1,2.819,2.861" transform="translate(-2.597 -11.363)" fill="#ffe900"/>
  </g>
</svg>
