<svg xmlns="http://www.w3.org/2000/svg" xmlns:xlink="http://www.w3.org/1999/xlink" width="98.492" height="97.013" viewBox="0 0 98.492 97.013">
  <defs>
    <clipPath id="clip-path">
      <rect id="Rectángulo_18" data-name="Rectángulo 18" width="98.492" height="97.013" transform="translate(0 0)" fill="#ffe034"/>
    </clipPath>
  </defs>
  <g id="Grupo_22" data-name="Grupo 22" transform="translate(0 0)" clip-path="url(#clip-path)">
    <path id="Trazado_69" data-name="Trazado 69" d="M72.877,69.558a1.1,1.1,0,0,0-1.292,1.254c.14.873.269,1.68.394,2.488,1.285,8.3-4.91,21.459-15.8,23.473a15.4,15.4,0,0,1-7.6-.572,35.642,35.642,0,0,1-4.23-1.671c-7.2-3.446-11.12-9.218-11.857-17.161v-.012a.888.888,0,0,0-1.16-.761,35.256,35.256,0,0,1-5.073,1.458A25.107,25.107,0,0,1,6.841,73.383C.866,69.036-1.028,62.79.509,55.669,1.991,48.8,6.391,44.148,12.563,41.053c.37-.186.743-.365,1.136-.552a.856.856,0,0,0,.256-1.358l-.007-.007A16.564,16.564,0,0,1,9.375,24.354c1.5-8.958,6.673-14.829,15.274-17.465,5.456-1.673,10.394,0,14.595,3.662a32.817,32.817,0,0,1,3.5,3.844,1.019,1.019,0,0,0,1.7-.225l.007-.015C48.029,6.542,53.82,1.788,62.183.238,70.035-1.218,78.262,4.13,79.954,12.924a22.06,22.06,0,0,1-2.14,13.9c-.032.068-.065.136-.1.2a1.953,1.953,0,0,0,1.83,2.8,18.629,18.629,0,0,1,3.83.163c10.372,1.783,18.558,12.7,13.657,25.155-3.144,7.994-9.568,12.292-17.666,14.329a14.822,14.822,0,0,1-6.491.086m-3.6-26.391c.144-4.957-1.463-8.212-5.5-11.936C61,28.662,57.593,26.737,53.657,26.7c-8.09-.083-15.019,2.632-20.14,9.172a25.176,25.176,0,0,0-5.755,14.177c-.314,5,3.5,13.121,9.285,15.058,2.171.727,4.4,1.3,6.615,1.876a11.474,11.474,0,0,0,6.117-.254,31.286,31.286,0,0,0,4.826-1.7C63.854,60.6,69.162,53.508,69.277,43.167m-6.9,23.62c-7.1,4.535-14.483,7.419-23.073,4.829a1.212,1.212,0,0,0-1.584,1.105v.013a35.1,35.1,0,0,0,.166,4.924c.543,3.693,1.806,7.076,4.872,9.5a23.647,23.647,0,0,0,7.269,3.91,9.893,9.893,0,0,0,10.349-2.2c4.8-4.346,7.028-9.783,6.032-16.316-.229-1.506-.747-2.965-1.033-4.465l-.006-.03a1.966,1.966,0,0,0-2.992-1.277M74.35,38.5c1.1,7.788-.341,14.885-4.831,21.2a2.518,2.518,0,0,0,1.324,3.872,16.479,16.479,0,0,0,6.371.769c5.958-1.17,10.77-4.154,13.873-9.434a12.38,12.38,0,0,0,.837-11.891c-3.141-6.646-9.474-8.878-15.56-7.432A2.628,2.628,0,0,0,74.35,38.5M30.408,67.464c-6.181-5.649-9.02-12.472-7.782-20.865a2.219,2.219,0,0,0-2.569-2.525l-.029,0a20.018,20.018,0,0,0-8.44,3.844,15.684,15.684,0,0,0-5.741,8.263c-1.472,5.255.282,10.638,4.7,13.334a21.872,21.872,0,0,0,13.662,3.307A14,14,0,0,0,30.028,70.9a2.15,2.15,0,0,0,.38-3.438M21.247,38.108a4.217,4.217,0,0,0,5.291-1.741,37.526,37.526,0,0,1,5.224-6.794,25.924,25.924,0,0,1,7.156-5.2,2.627,2.627,0,0,0,1.064-3.724c-.764-1.251-1.509-2.449-2.316-3.6a12.091,12.091,0,0,0-2.677-2.791c-3.245-2.38-6.727-3.175-10.611-1.432A15.664,15.664,0,0,0,14.725,25.2a11.5,11.5,0,0,0,2.269,9.317,11.117,11.117,0,0,0,4.253,3.59M48.774,17.854a2.446,2.446,0,0,0,2.469,3.272,16.453,16.453,0,0,1,1.7-.059c5.129.215,9.611,2.719,13.983,5.568A12.116,12.116,0,0,1,68.954,28.6l.009.01a1.136,1.136,0,0,0,1.806-.145c.4-.643.748-1.206,1.045-1.793.743-1.469,1.458-2.961,2.06-4.493a16.041,16.041,0,0,0,1-7.12A10.265,10.265,0,0,0,62.331,5.614a18.482,18.482,0,0,0-13.557,12.24" fill="#ffe034"/>
    <path id="Trazado_70" data-name="Trazado 70" d="M51.467,57.509a10.5,10.5,0,0,1-6.429-1.814,6.059,6.059,0,0,1-1.145-1.1,2.744,2.744,0,0,1-.183-3.7c.892-1,2.3-1.084,3.667-.086a6.162,6.162,0,0,0,3.6,1.25,3.5,3.5,0,0,0,3.436-2.027c.3-.575.53-1.185.848-1.747a2.585,2.585,0,0,1,2.885-1.545,2.54,2.54,0,0,1,1.775,2.741c-.1,3.118-1.784,5.288-4.332,6.854a7.753,7.753,0,0,1-4.122,1.174" fill="#ffe034"/>
    <path id="Trazado_71" data-name="Trazado 71" d="M41.3,46.746a2.624,2.624,0,0,1-2.563,2.612,2.562,2.562,0,0,1-2.626-2.532A2.588,2.588,0,0,1,38.652,44.2,2.632,2.632,0,0,1,41.3,46.746" fill="#ffe034"/>
    <path id="Trazado_72" data-name="Trazado 72" d="M60.949,40.029a2.624,2.624,0,0,1-2.563,2.612,2.562,2.562,0,0,1-2.626-2.532,2.588,2.588,0,0,1,2.545-2.627,2.632,2.632,0,0,1,2.644,2.547" fill="#ffe034"/>
  </g>
</svg>
