<svg xmlns="http://www.w3.org/2000/svg" xmlns:xlink="http://www.w3.org/1999/xlink" width="93.24" height="164.293" viewBox="0 0 93.24 164.293">
  <defs>
    <clipPath id="clip-path">
      <rect id="Rectángulo_17" data-name="Rectángulo 17" width="93.24" height="164.293" fill="none"/>
    </clipPath>
  </defs>
  <g id="Grupo_20" data-name="Grupo 20" clip-path="url(#clip-path)">
    <path id="Trazado_68" data-name="Trazado 68" d="M75.284,49.224a1.677,1.677,0,0,0,.019,2.757c.929.635,1.837,1.262,2.712,1.93,4.907,3.749,8.415,8.43,9.218,14.72,1.153,9.02-5.846,17.156-15.825,14.973a48.813,48.813,0,0,1-6.751-2.172,2.134,2.134,0,0,0-2.876,2.227q1.209,11.132,2.488,22.922a.815.815,0,0,0,1.507.334l0,0a43.623,43.623,0,0,1,9.5-11.22A19.715,19.715,0,0,1,82.5,91.671c5.4-1.534,10.169,1.585,10.688,7.173a13.5,13.5,0,0,1-1.873,7.942,34.14,34.14,0,0,1-9.291,10.485,64.682,64.682,0,0,1-14.5,8.29l-.02.009a3.148,3.148,0,0,0-1.927,2.925c.021,2.6.06,5.149-.029,7.7-.213,6.162-.518,12.321-.841,18.478-.092,1.756-.336,3.508-.592,5.25a9.005,9.005,0,0,1-.668,2.317,3.1,3.1,0,0,1-3.313,2.027,2.834,2.834,0,0,1-2.56-2.638,33.475,33.475,0,0,1,.01-5.484c.294-4.69.675-9.375,1.009-14.063.012-.162.017-.325.019-.492a1.448,1.448,0,0,0-1.421-1.474H57.18a55.256,55.256,0,0,1-30.151-9.078,22.147,22.147,0,0,1-6.685-6.319c-3.418-5.125-1.8-10.6,3.869-13.031,4.014-1.725,8.159-1.621,12.331-.712A44.681,44.681,0,0,1,56.429,121.4l.015.013a1.021,1.021,0,0,0,1.687-.834c-.728-12-1.472-23.689-2.964-35.3a.915.915,0,0,0-1.761-.212,28.607,28.607,0,0,1-5.2,8.574,17.086,17.086,0,0,1-9.556,5.52,8.814,8.814,0,0,1-9.569-3.894c-2.627-3.88-2.9-8.244-2.393-12.709.131-1.166.356-2.322.6-3.536a1.01,1.01,0,0,0-1.533-1.051l-.018.011a33.882,33.882,0,0,1-11.729,4.868C5.224,84.566-1.258,78.283.207,69.425c1.021-6.174,4.706-10.572,9.775-13.762,2.889-1.817,6.2-2.961,9.334-4.387.066-.03.132-.058.2-.085a1.04,1.04,0,0,0,.292-1.77c-.359-.3-.7-.579-1.035-.868A27.134,27.134,0,0,1,8.891,27.235a10.857,10.857,0,0,1,.071-1.361c1.039-8.7,8.185-12.986,16.159-9.8,3.664,1.465,6.679,3.963,9.684,6.446l.216.181a1.264,1.264,0,0,0,2.073-.8l0-.022a88.43,88.43,0,0,1,1.372-9.772,17.232,17.232,0,0,1,6.373-9.55c5.681-4.44,12.035-2.984,15.15,3.5a31.918,31.918,0,0,1,2.707,12.4c.048.966.058,1.934.053,2.91A1.755,1.755,0,0,0,65.6,22.757a41.5,41.5,0,0,1,6.359-4.418,18.552,18.552,0,0,1,8.06-1.982,11.083,11.083,0,0,1,11.188,13.4,19.482,19.482,0,0,1-3.378,7.82c-3.33,4.8-7.822,8.331-12.532,11.636ZM36.67,39.282a3.285,3.285,0,0,0,.105-4.376l-3.2-3.818a41.758,41.758,0,0,0-9.352-7.942,7.486,7.486,0,0,0-4.542-1.389c-2.173.1-3.35.976-3.882,3.051a7.712,7.712,0,0,0-.215,1.418,20.029,20.029,0,0,0,3.255,12.509c2.8,4.3,6.915,7.121,11.119,9.815a1.319,1.319,0,0,0,2.182-.908,18.245,18.245,0,0,1,4.531-8.36M32.2,64.292a4.566,4.566,0,0,0,1.1-5.228c-.384-.87-.748-1.724-1.079-2.591-.339-.888-.84-1.15-1.67-.94-4.759,1.207-9.643,1.976-14.115,4.165a20.413,20.413,0,0,0-7.777,6.234,9.747,9.747,0,0,0-1.935,5.935c.069,3.106,1.606,4.907,4.443,4.481a27.69,27.69,0,0,0,7.148-2.01c5.355-2.4,9.674-6.224,13.882-10.046m48.117,4.769c-.033-1.548-1.146-3.988-2.878-6.149-3-3.745-7-6.193-11.215-8.31a2.172,2.172,0,0,0-3.312,1.364,19.871,19.871,0,0,1-4.656,7.371,1.6,1.6,0,0,0-.377,2.121,19.152,19.152,0,0,0,15.391,11.36c4.481.653,7.1-1.928,7.047-7.757M48.1,60.5c2.818.071,5.268-1.468,6.9-4.279a16.291,16.291,0,0,0,1.76-12.31,6.435,6.435,0,0,0-3.133-4.335,3.076,3.076,0,0,0-1.846-.425,23.866,23.866,0,0,0-4.455,1.154c-4.52,1.759-7.657,4.763-8.48,9.784-1,6.11,2.568,10.394,9.254,10.411M64.5,45.829a1.331,1.331,0,0,0,1.9.8,51.52,51.52,0,0,0,12.683-9.388A28.252,28.252,0,0,0,83.2,31.85a9.2,9.2,0,0,0,1.112-4.165c.134-3.139-1.768-4.835-4.868-4.387a13.941,13.941,0,0,0-4.6,1.376,38.1,38.1,0,0,0-11.156,9.539,5.75,5.75,0,0,0-1.05,5.265c.645,2.2,1.252,4.27,1.862,6.351M43.267,66.917a4.6,4.6,0,0,0-4.931,2.422,48.545,48.545,0,0,0-4.452,11.255,18.657,18.657,0,0,0-.343,8.929c.872,3.365,2.517,4.1,5.728,2.7a11.764,11.764,0,0,0,4.621-3.973c3.482-4.648,4.666-10.054,5.1-15.686.029-.371.045-.743.053-1.113a4.044,4.044,0,0,0-3.3-4.071l-2.475-.459M56.2,133.952a1.3,1.3,0,0,0,1.294-2.088l-.021-.023a46.131,46.131,0,0,0-16.212-12.256,24.17,24.17,0,0,0-9.755-2.45,15.133,15.133,0,0,0-4.718.836c-1.66.56-1.885,1.463-.894,2.866a9.47,9.47,0,0,0,2.38,2.565,84.969,84.969,0,0,0,9.05,5.386c5.963,2.875,12.473,3.838,18.876,5.164M51.705,32.078a3.77,3.77,0,0,0,3.274-3.458l0-.034c.236-3.514.582-7.03.593-10.546a21.166,21.166,0,0,0-1.762-8.8c-1.213-2.7-2.66-3-4.92-1.065a12.67,12.67,0,0,0-4.176,7.33,47.356,47.356,0,0,0-.242,14.043c0,.012,0,.025,0,.037a3.343,3.343,0,0,0,3.781,2.949l3.446-.459m16.424,83.46a1.118,1.118,0,0,0,1.508,1.495,41.91,41.91,0,0,0,10.073-6.8,50.817,50.817,0,0,0,5.353-6.379,8.081,8.081,0,0,0,1.314-3.226c.432-2.188-.685-3.153-2.746-2.36a14.721,14.721,0,0,0-3.618,2.053c-5.292,4.064-8.945,9.355-11.884,15.215" fill="#cb006e"/>
  </g>
</svg>
