<svg xmlns="http://www.w3.org/2000/svg" xmlns:xlink="http://www.w3.org/1999/xlink" width="68.12" height="90.941" viewBox="0 0 68.12 90.941">
  <defs>
    <clipPath id="clip-path">
      <rect id="Rectángulo_14" data-name="Rectángulo 14" width="68.12" height="90.941" transform="translate(0 0)" fill="none"/>
    </clipPath>
  </defs>
  <g id="Grupo_15" data-name="Grupo 15" transform="translate(0 0)">
    <g id="Grupo_14" data-name="Grupo 14" clip-path="url(#clip-path)">
      <path id="Trazado_51" data-name="Trazado 51" d="M61.953,27.393Q57.609,13.928,53.266.461c-.213-.662-.629-.469-1.19-.287a201.352,201.352,0,0,0-35.4,15.3c-4.612,2.555-9.674,5.406-11.777,10.6-1.926,4.752.972,11.809,2.244,16.472,1.859,6.816,4.292,13.723,6,20.733C7.268,66.039,2.465,72.336.674,78.022-.534,81.859-.371,87.276,3.267,89.846c3.265,2.307,7.461.574,10.272-1.584,9.185-7.054,9.559-17.285,7.545-27.791-1.176-6.138-3-12.125-4.781-18.109-.251-.847-.5-1.7-.747-2.545l34.25-19.31c.131-.074.256-.16.384-.241q1.017,3.15,2.032,6.3,1.449,4.49,2.9,8.978c.312.966,2.06,4.671,2.394,6.643-4.27,4.495-8.621,9-10.21,15.221-1.509,5.908,1.866,14.225,9.259,12.4C62.233,68.4,66.887,61.257,67.79,55.8c1.3-7.849-1.481-16.8-4.07-24.11a.352.352,0,0,0-.209-.22c-.537-1.443-1.163-2.848-1.558-4.073M15.212,78.223a13.529,13.529,0,0,1-.4,4.043l-.007.02a6.148,6.148,0,0,1-1.658.287c-3.018.075-5.053-2.247-5.79-4.994-1.5-5.605.854-7.5,6.258-7.361a2.113,2.113,0,0,0,.893-.206,54.467,54.467,0,0,1,.7,8.211M60.077,51.849a56.856,56.856,0,0,1,.85,6.435,16.848,16.848,0,0,1-.356,3.109,3.829,3.829,0,0,1-2.3-.349,8.073,8.073,0,0,1-3.348-3.026C52.205,53.447,54.87,48.934,58.1,45.7c.154-.154.317-.313.476-.47.6,2.181,1.106,4.386,1.5,6.622M46.391,8.487q.786,2.439,1.574,4.878c-2.306-.045-4.353-1.348-6.507-2.12-.508-.182-1.023-.343-1.539-.5,2.147-.782,4.3-1.543,6.472-2.259m-18.7,8.662a20.155,20.155,0,0,0,2.955,1.142,31.488,31.488,0,0,1,5.665,1.748c.953.4,1.882.82,2.83,1.149-.647.364-5.979,4.165-6.62,3.731-1.953-1.32-4.081-1.253-6.226-2.055q-1.954-.73-3.885-1.521c-.5-.206-3.141-1.708-3.544-1.505,1.869-.941,4.216-2.675,6.261-3.107a4.543,4.543,0,0,1,2.564.418M14.339,35.524c-.168-.611-.345-1.219-.507-1.832-.433-1.644-.67-3.54-1-5.378q3.958,1.718,8.02,3.185l-4.5,2.536a11.1,11.1,0,0,0-2.018,1.489M48.53,15.9c.052-.1.1-.2.153-.3.02.062.039.123.059.184l-.212.12" fill="#cb006e"/>
    </g>
  </g>
</svg>
