<svg id="Grupo_25" data-name="Grupo 25" xmlns="http://www.w3.org/2000/svg" xmlns:xlink="http://www.w3.org/1999/xlink" width="209.36" height="23.273" viewBox="0 0 209.36 23.273">
  <defs>
    <clipPath id="clip-path">
      <rect id="Rectángulo_19" data-name="Rectángulo 19" width="209.36" height="23.273" fill="none"/>
    </clipPath>
  </defs>
  <g id="Grupo_24" data-name="Grupo 24" transform="translate(0 0)" clip-path="url(#clip-path)">
    <path id="Trazado_73" data-name="Trazado 73" d="M86.116,4.242c-1.4.264-2.775.537-4.075.85a58.921,58.921,0,0,0-15.17,5.664c-3.976,2.237-7.512,4.568-11.281,6.851a23.034,23.034,0,0,1-3.09,1.649,12.211,12.211,0,0,1-6,.648c-2.241-.249-3.591-.811-3.786-1.609a7.389,7.389,0,0,1-.153-2.661,9.78,9.78,0,0,0-1.11-6.586,2.372,2.372,0,0,0-.182-.257c-.908-1.123-4.993-1.513-7.409-.7l-.114.039A92.858,92.858,0,0,0,23.8,12.02,62.852,62.852,0,0,0,9.055,21.758a4.383,4.383,0,0,1-.467.435,7.8,7.8,0,0,1-5.01,1.045C1.439,23.071-.2,22.384.02,21.5a4.59,4.59,0,0,1,1.515-2.362A66.4,66.4,0,0,1,19.089,8.231a82.322,82.322,0,0,1,8.745-3.023,46.615,46.615,0,0,1,6.295-1.3C40,3.044,45.109,3.632,48.615,5.5a7.693,7.693,0,0,1,3.846,4.043c.083.2.161.4.241.607.162.432,1.8.553,2.457.181l.016-.009A73.269,73.269,0,0,1,73.19,2.9c3.335-.89,7.031-1.636,10.75-2.326A42.378,42.378,0,0,1,90.027.02C95-.137,98.9.624,100.6,2.249a5.6,5.6,0,0,1,1.937,3.5A16.528,16.528,0,0,1,102,10.057c-.084.42,1.416.639,2.223.324l.023-.009A137.617,137.617,0,0,1,129.9,3.19c3.13-.571,6.487-1.063,9.907-1.358,8.438-.731,14.836.691,16.627,3.664a6.148,6.148,0,0,1,.7,2.293c.083.5,1.8.74,2.859.4l.025-.008A114.078,114.078,0,0,1,188.9,3.157c10.02-.533,17.1,1.066,19.323,4.5a7.641,7.641,0,0,1,1.07,3.683,20.013,20.013,0,0,1-.193,4.874,3.08,3.08,0,0,1-1.486,2.107,7.966,7.966,0,0,1-7.128-.1,2.015,2.015,0,0,1-.9-1.339c-.285-1.893-.4-3.788-.666-5.682a8.964,8.964,0,0,0-.681-2.539c-.759-1.667-3.137-2.307-7.964-1.961-3.681.264-7.334.676-10.793,1.19a71.228,71.228,0,0,0-14.249,3.6c-3.141,1.152-6.11,2.361-9.147,3.548-.593.232-1.113.486-1.726.71a14.074,14.074,0,0,1-6.892.7c-2.474-.36-3.764-1.155-3.347-2.3.659-1.8,1.662-3.589,2.216-5.394A3.714,3.714,0,0,0,146,6.115c-.331-.726-1.647-.99-3.681-.8s-4.043.451-5.92.78a123.357,123.357,0,0,0-23.743,6.523c-3.637,1.416-7.173,2.864-10.85,4.267a24.715,24.715,0,0,1-4.057,1.193c-3.878.763-8.272-.01-8.654-1.548a4.709,4.709,0,0,1,.4-2.656c1-2.838,2.83-5.649,2.307-8.534l0-.017c-.182-.973-3.215-1.545-5.685-1.078" transform="translate(0 0)" fill="#ffe900"/>
  </g>
</svg>
