<svg xmlns="http://www.w3.org/2000/svg" width="1174.367" height="118.057" viewBox="0 0 1174.367 118.057">
  <path id="Sustracción_1" data-name="Sustracción 1" d="M1192.833,131.223H19.888l-.016-.625.019-.009c.977-.416,9.983-4.226,25.088-9.913C59.637,115.157,83.2,106.691,112.217,97.7c32.615-10.1,65.333-18.8,97.245-25.84A962.4,962.4,0,0,1,324.59,53.343c19.444-1.857,38.614-2.76,58.606-2.76,15.219,0,30.456.523,46.581,1.6,14.39.961,29.18,2.344,45.216,4.231,29.82,3.507,59.774,8.3,88.742,12.94h.009l3.7.592C594.019,74.2,627.093,79.491,660.1,83.26c17.1,1.953,33.036,3.388,48.707,4.387,17.559,1.12,34.289,1.664,51.145,1.664,3.194,0,6.408-.02,9.553-.06C789.27,89,811.423,87.7,835.35,85.381c21.751-2.108,45.456-5.1,70.455-8.9,42.106-6.4,88.614-15.165,138.232-26.056,44.143-9.69,82.634-19.3,107.151-25.664,26.187-6.793,42.375-11.4,43.052-11.593l-1.406,118.057Z" transform="translate(-19.872 -13.166)" fill="#019cde"/>
</svg>
